<?xml version="1.0" encoding="UTF-8"?>
<svg xmlns="http://www.w3.org/2000/svg" width="200" height="52" fill="none">
  <g clip-path="url(#clip0)">
    <path d="M5.58533 33.1258L5.08152 32.9191C5.18362 32.671 5.197 32.3954 5.11938 32.1387 5.06988 31.9785 4.98542 31.9115 4.89514 31.9407 4.80778 31.9698 4.78157 32.0571 4.80487 32.3687 4.84564 32.8608 4.82816 33.2423 4.38551 33.3966 3.98363 33.5218 3.5934 33.2976 3.43032 32.7793 3.3162 32.4641 3.3162 32.1189 3.43032 31.8038L3.94869 31.9669C3.8733 32.1836 3.86518 32.4181 3.92539 32.6395 3.97198 32.7822 4.05644 32.8346 4.13215 32.8113 4.23117 32.7793 4.25155 32.6919 4.22534 32.3716 4.17584 31.8417 4.2399 31.498 4.64178 31.3583 5.08152 31.2185 5.45428 31.4835 5.62028 32.0076 5.74422 32.3723 5.73181 32.7696 5.58533 33.1258zM3.0288 31.3437L2.91231 30.7293 3.74228 30.5633 3.58211 29.7742 2.75505 29.9431 2.62109 29.3287 4.83435 28.8832 4.95958 29.4947 4.11796 29.6665 4.27813 30.4527 5.11683 30.2838 5.24206 30.8982 3.0288 31.3437zM2.45478 27.9689L2.40527 27.3719 4.58941 26.2275 4.6593 26.8915 4.25742 27.0807 4.33023 27.9543 4.74667 28.0795 4.79909 28.7347 2.45478 27.9689zM3.78565 27.3079L3.16535 27.599 3.82642 27.8 3.78565 27.3079zM2.33008 25.9916L2.34755 25.4092 3.57067 24.5153 2.37667 24.4774 2.39706 23.8601 4.65691 23.93 4.65982 24.4745 3.39011 25.4034 4.6307 25.4413 4.61032 26.0615 2.33008 25.9916zM3.57367 23.5048C3.41671 23.4835 3.26574 23.4304 3.12999 23.3488 2.99425 23.2672 2.87657 23.1588 2.78417 23.0301 2.69177 22.9015 2.62657 22.7553 2.59258 22.6006 2.55858 22.4459 2.55649 22.2859 2.58644 22.1304 2.62064 21.7905 2.78564 21.4773 3.04657 21.2568L3.43098 21.6849C3.27176 21.8108 3.16741 21.9934 3.13976 22.1945 3.12836 22.273 3.13314 22.3531 3.15382 22.4297 3.17449 22.5064 3.21062 22.578 3.25999 22.6402 3.30935 22.7024 3.37091 22.7538 3.44088 22.7913 3.51085 22.8288 3.58775 22.8517 3.66686 22.8584 3.7477 22.877 3.83157 22.8781 3.91288 22.8617 3.99419 22.8453 4.07106 22.8117 4.13833 22.7632 4.20561 22.7147 4.26174 22.6523 4.30298 22.5804 4.34421 22.5084 4.3696 22.4285 4.37743 22.3459 4.40242 22.2207 4.38923 22.0908 4.33958 21.9732L4.07748 21.9411 4.01341 22.3808 3.55911 22.3139 3.71346 21.286 4.71816 21.4345C4.90341 21.7419 4.97455 22.1048 4.9191 22.4594 4.90475 22.6186 4.85781 22.7731 4.78118 22.9134 4.70455 23.0536 4.59988 23.1766 4.47368 23.2746 4.34748 23.3727 4.20245 23.4437 4.04762 23.4833 3.89279 23.5229 3.73146 23.5302 3.57367 23.5048zM2.88867 20.6104L3.05175 20.0047 3.87008 20.2231 4.07684 19.4485 3.26143 19.2185 3.42451 18.6361 5.60865 19.2185 5.44557 19.8242 4.6156 19.5999 4.40592 20.3832 5.23589 20.6075 5.07281 21.2102 2.88867 20.6104zM3.89062 17.3258L4.11195 16.7667 6.58148 16.7201 6.33395 17.3403H5.89712L5.57387 18.1498 5.88838 18.441 5.64376 19.0525 3.89062 17.3258zM5.37875 17.3258H4.68856L5.18946 17.8004 5.37875 17.3258zM4.67676 15.5408L4.96798 14.9788 6.98903 15.9892 6.69781 16.5512 4.67676 15.5408zM7.193 14.8507L7.03574 14.3323C7.29204 14.2557 7.51351 14.0919 7.66186 13.8693 7.75505 13.7267 7.75505 13.6218 7.66186 13.5782 7.58323 13.5287 7.49877 13.5607 7.27454 13.7791 6.91925 14.1227 6.60182 14.3615 6.2145 14.1052 5.86213 13.8752 5.79223 13.4326 6.08637 12.9783 6.25891 12.6899 6.52828 12.4722 6.84645 12.3639L7.04447 12.8676C6.82991 12.9469 6.6442 13.089 6.51154 13.2753 6.43 13.4005 6.44456 13.4995 6.51154 13.5432 6.596 13.6014 6.67754 13.5607 6.9076 13.3365 7.28618 12.9637 7.60361 12.7861 7.95599 13.0162 8.34331 13.2695 8.37243 13.7237 8.07247 14.1809 7.87024 14.5034 7.55768 14.7414 7.193 14.8507zM6.93359 11.8136L7.31218 11.3127 9.10899 12.6813 8.73624 13.1822 6.93359 11.8136zM7.64746 10.8585L8.03769 10.4246 9.54912 10.5353 8.6609 9.73449 9.07734 9.27441 10.7577 10.7886 10.3878 11.1963 8.82107 11.0827 9.74132 11.9126 9.31905 12.3727 7.64746 10.8585zM10.1927 9.75778C10.0869 9.63999 10.0062 9.50187 9.95564 9.35187 9.90503 9.20187 9.88554 9.04313 9.89835 8.88534 9.91116 8.72755 9.956 8.57403 10.0301 8.43415 10.1043 8.29427 10.2062 8.17097 10.3296 8.07179 10.575 7.84176 10.8988 7.71372 11.2352 7.71362V8.296C11.0333 8.28996 10.8366 8.36072 10.6848 8.49401 10.6305 8.54791 10.5873 8.61199 10.5577 8.68258 10.5282 8.75318 10.5128 8.82891 10.5126 8.90544 10.5123 8.98198 10.5271 9.05781 10.5562 9.12862 10.5852 9.19942 10.628 9.2638 10.6819 9.31808 10.7332 9.38234 10.7973 9.43531 10.8701 9.47366 10.9428 9.512 11.0227 9.5349 11.1048 9.54092 11.1868 9.54693 11.2692 9.53593 11.3468 9.50861 11.4243 9.48129 11.4954 9.43823 11.5556 9.38214 11.654 9.30187 11.7269 9.19459 11.7653 9.07348L11.5818 8.86674 11.2498 9.15793 10.9586 8.81432 11.7332 8.15332 12.403 8.91624C12.3462 9.26924 12.1668 9.59093 11.8963 9.82475 11.7828 9.93742 11.6473 10.0255 11.4982 10.0835 11.3492 10.1415 11.1897 10.1682 11.0299 10.1619 10.8701 10.1557 10.7133 10.1165 10.5692 10.047 10.4252 9.97747 10.297 9.87901 10.1927 9.75778zM12.1699 6.65659L12.665 6.31299 14.7501 7.63208 14.1997 8.01645 13.8357 7.77767 13.1193 8.2727 13.2154 8.69783 12.6766 9.07056 12.1699 6.65659zM13.396 7.48066L12.8135 7.09629 12.9708 7.76894 13.396 7.48066zM13.8213 5.58497L14.6716 5.12489C15.1755 4.85409 15.6385 4.93562 15.8744 5.37532 16.1277 5.84122 15.9035 6.28383 15.4084 6.54008L15.1434 6.69732 15.4346 7.2797 14.8842 7.57089 13.8213 5.58497zM15.1667 6.13241C15.3618 6.02758 15.4259 5.85869 15.3415 5.70436 15.2512 5.53547 15.0823 5.50635 14.8842 5.61409L14.6251 5.75386 14.9163 6.27801 15.1667 6.13241zM16.2679 5.55303C16.2101 5.40616 16.1822 5.24923 16.1859 5.09144 16.1895 4.93365 16.2247 4.77817 16.2892 4.63414 16.3538 4.49011 16.4465 4.36043 16.5618 4.2527 16.6772 4.14498 16.8129 4.06138 16.961 4.00681 17.1045 3.94218 17.2596 3.9073 17.417 3.90427 17.5744 3.90124 17.7307 3.93012 17.8766 3.98918 18.0224 4.04823 18.1548 4.13623 18.2658 4.24786 18.3767 4.3595 18.4639 4.49245 18.522 4.63869 18.6277 4.93434 18.6152 5.25942 18.4868 5.54601 18.3585 5.8326 18.1244 6.05851 17.8334 6.17655 17.5424 6.29459 17.2171 6.29562 16.9253 6.17942 16.6336 6.06323 16.3981 5.8388 16.2679 5.55303zM17.9308 4.88329C17.905 4.80864 17.8642 4.74003 17.811 4.68163 17.7578 4.62323 17.6933 4.57625 17.6214 4.54357 17.5495 4.51088 17.4717 4.49317 17.3927 4.4915 17.3137 4.48983 17.2352 4.50424 17.162 4.53386 17.0918 4.56531 17.0285 4.61037 16.9757 4.66642 16.923 4.72247 16.8819 4.78841 16.8549 4.86043 16.8278 4.93246 16.8153 5.00913 16.818 5.08602 16.8207 5.16292 16.8386 5.23851 16.8708 5.30843 16.8967 5.38237 16.9372 5.45033 16.99 5.50823 17.0428 5.56613 17.1067 5.61279 17.1779 5.64542 17.2492 5.67804 17.3262 5.69596 17.4046 5.6981 17.4829 5.70023 17.5608 5.68655 17.6338 5.65786 17.7045 5.62695 17.7684 5.58229 17.8217 5.52647 17.875 5.47065 17.9167 5.40479 17.9444 5.33272 17.972 5.26065 17.985 5.1838 17.9827 5.10664 17.9804 5.02949 17.9627 4.95357 17.9308 4.88329zM18.6084 3.43602L19.6364 3.14483C19.7617 3.09925 19.895 3.07962 20.0282 3.08713 20.1614 3.09464 20.2916 3.12913 20.411 3.18851 20.4951 3.23681 20.568 3.30219 20.6252 3.38043 20.6824 3.45868 20.7225 3.54805 20.743 3.64276 20.7869 3.78621 20.7847 3.93982 20.7366 4.08192 20.6886 4.22403 20.5971 4.34746 20.4751 4.4348L21.2031 5.05212 20.5042 5.2414 19.8898 4.72017 19.6306 4.79005 19.8024 5.45105 19.1967 5.61412 18.6084 3.43602zM19.8956 4.21058C20.0994 4.15526 20.1868 4.02131 20.1489 3.86407 20.1023 3.69227 19.9538 3.63985 19.7529 3.69518L19.3539 3.78545 19.4966 4.30959 19.8956 4.21058zM21.0264 2.80999L22.8232 2.5188 22.9076 3.04585 21.7253 3.23804 21.7806 3.57582 22.8523 3.4011 22.9309 3.8903 21.8593 4.06502 21.9175 4.41736 23.1173 4.22226 23.2018 4.74931 21.3904 5.0405 21.0264 2.80999zM24.2559 2.40522L24.8849 2.3761 24.9897 4.62991 24.3607 4.65903 24.2559 2.40522zM25.4322 2.32959L26.0146 2.34997 26.9086 3.58171 26.9465 2.38783 27.5668 2.40821 27.4911 4.65911H26.9436L26.0175 3.37787 25.9767 4.61543 25.3564 4.59505 25.4322 2.32959zM28.621 3.09242L27.957 2.99633 28.0357 2.45471 29.9985 2.7459 29.9198 3.29043 29.25 3.19433 29.0083 4.88906 28.388 4.8017 28.621 3.09242zM30.4293 2.82166L32.1941 3.25844 32.066 3.78549 30.9011 3.4943 30.8167 3.82626 31.8738 4.08542 31.7544 4.56588 30.7002 4.30673 30.6128 4.65324 31.7952 4.94443 31.667 5.46275 29.8848 5.02305 30.4293 2.82166zM32.6772 3.40405L33.6819 3.76513C33.8107 3.79952 33.9312 3.85988 34.0358 3.9425 34.1405 4.02512 34.2272 4.12826 34.2905 4.24559 34.3298 4.33407 34.3501 4.4298 34.3501 4.52659 34.3501 4.62339 34.3298 4.71911 34.2905 4.80759 34.2452 4.95008 34.156 5.07463 34.0358 5.16352 33.9155 5.2524 33.7703 5.30107 33.6207 5.30261L33.8595 6.22568 33.1985 5.98691 33.0004 5.18905 32.75 5.09878 32.517 5.74231 31.9346 5.52974 32.6772 3.40405zM33.2887 4.77556C33.4897 4.84835 33.6382 4.79303 33.6935 4.6387 33.7547 4.47272 33.6644 4.34751 33.4664 4.27471L33.0791 4.13494 32.9072 4.63579 33.2887 4.77556zM35.0419 4.28345L35.5661 4.54261 35.8719 6.02476 36.4019 4.95027 36.9581 5.22399 35.9592 7.26232 35.47 7.01772 35.1496 5.48024 34.6021 6.59258 34.0488 6.31887 35.0419 4.28345zM38.1499 5.93445L38.6537 6.26349 38.2197 8.69784 37.6577 8.33094 37.7392 7.90289 37.0083 7.42825 36.653 7.67868 36.1113 7.32051 38.1499 5.93445zM37.8586 7.3904L37.9984 6.71484 37.4335 7.11377 37.8586 7.3904zM39.6059 7.64959L39.0758 7.22737 39.4166 6.79932 40.9658 8.03105 40.6251 8.4591 40.0951 8.03687 39.0234 9.37635 38.5342 8.98615 39.6059 7.64959zM41.269 8.31641L41.7321 8.73572 40.1886 10.4042 39.7256 9.97619 41.269 8.31641zM41.2567 9.81896C41.4979 9.62228 41.8051 9.52515 42.1155 9.54745 42.4258 9.56975 42.716 9.70978 42.9265 9.9389 43.1371 10.168 43.2521 10.4689 43.2481 10.7801 43.2441 11.0912 43.1214 11.389 42.905 11.6127 42.6642 11.8093 42.3574 11.9066 42.0472 11.8847 41.737 11.8627 41.4469 11.7232 41.2362 11.4947 41.0254 11.2661 40.9099 10.9656 40.9132 10.6548 40.9164 10.3439 41.0383 10.046 41.2538 9.82187L41.2567 9.81896zM42.4711 11.1439C42.5319 11.0935 42.5818 11.0314 42.6178 10.9612 42.6538 10.891 42.6752 10.8143 42.6806 10.7356 42.6861 10.6569 42.6755 10.5779 42.6495 10.5034 42.6235 10.429 42.5826 10.3605 42.5294 10.3023 42.4752 10.2473 42.4106 10.2036 42.3393 10.1738 42.2681 10.144 42.1916 10.1286 42.1144 10.1286 42.0371 10.1286 41.9607 10.144 41.8894 10.1738 41.8182 10.2036 41.7536 10.2473 41.6994 10.3023 41.6389 10.3524 41.5891 10.4142 41.5531 10.4841 41.5171 10.5539 41.4956 10.6303 41.4899 10.7086 41.4842 10.7869 41.4944 10.8656 41.5199 10.9399 41.5454 11.0142 41.5856 11.0826 41.6382 11.141 41.6923 11.1966 41.7569 11.2409 41.8283 11.2713 41.8997 11.3016 41.9765 11.3174 42.0541 11.3176 42.1317 11.3179 42.2085 11.3027 42.2801 11.2728 42.3518 11.243 42.4167 11.1991 42.4711 11.1439zM44.07 11.272L44.4107 11.7466 43.9797 13.2026 44.9495 12.5095 45.3106 13.0133 43.473 14.3266 43.1526 13.881 43.6011 12.3756 42.5935 13.1036 42.2266 12.5852 44.07 11.272zM46.0127 14.1897L46.3039 14.7197 44.7721 16.6561 44.4488 16.0737 44.7401 15.7359 44.3207 14.973 43.8897 15.0254 43.5723 14.443 46.0127 14.1897zM45.0633 15.337L45.506 14.807 44.8216 14.8944 45.0633 15.337zM46.9124 15.9397L47.157 16.5221 45.5786 17.1802 46.0125 18.1906 45.5058 18.4032 44.8418 16.8162 46.9124 15.9397zM46.126 19.1923L46.6182 19.4223C46.5042 19.6651 46.4775 19.9397 46.5425 20.1998 46.5862 20.3629 46.6648 20.4357 46.7609 20.4095 46.8512 20.3833 46.8803 20.2988 46.8715 19.9843 46.8541 19.4922 46.889 19.1108 47.3375 18.9768 47.7452 18.8691 48.1238 19.1108 48.2636 19.6349 48.3624 19.957 48.3438 20.3036 48.2111 20.6133L47.7044 20.424C47.7873 20.2108 47.8055 19.9779 47.7568 19.7543 47.7161 19.6087 47.6345 19.5534 47.5588 19.5738 47.4569 19.6029 47.4336 19.6873 47.4452 20.0076 47.4685 20.5405 47.3899 20.8958 46.9822 21.0035 46.5366 21.1229 46.1755 20.8404 46.0357 20.3105 45.9287 19.9392 45.9608 19.5416 46.126 19.1923zM47.4686 21.1667C47.6225 21.1411 47.7799 21.1466 47.9315 21.183 48.0832 21.2194 48.226 21.2859 48.3515 21.3785 48.4769 21.4711 48.5825 21.588 48.662 21.7221 48.7415 21.8563 48.7932 22.0051 48.8141 22.1596 48.8518 22.3422 48.8427 22.5314 48.7877 22.7096 48.7327 22.8878 48.6336 23.0492 48.4995 23.1788L48.0511 22.7711C48.1223 22.7043 48.1762 22.6211 48.2082 22.5288 48.2402 22.4364 48.2492 22.3377 48.2345 22.2411 48.2204 22.1675 48.1916 22.0975 48.1498 22.0352 48.108 21.973 48.0542 21.9197 47.9914 21.8787 47.9286 21.8377 47.8583 21.8097 47.7845 21.7964 47.7107 21.7832 47.6349 21.7849 47.5618 21.8014 47.4868 21.8068 47.4136 21.8274 47.3468 21.8618 47.2799 21.8963 47.2208 21.9439 47.1728 22.0019 47.1249 22.0599 47.0893 22.127 47.068 22.1991 47.0468 22.2713 47.0404 22.347 47.0493 22.4217 47.0656 22.5211 47.1059 22.6149 47.1669 22.6951 47.2278 22.7753 47.3074 22.8394 47.3987 22.8818L47.1425 23.4001C46.9152 23.2912 46.7285 23.1129 46.6092 22.8909 46.49 22.6689 46.4444 22.4148 46.4791 22.1652 46.5138 21.9156 46.6269 21.6835 46.8022 21.5024 46.9774 21.3214 47.2057 21.2007 47.4541 21.1579L47.4686 21.1667zM48.9543 23.5864L48.9805 24.2125 48.1389 24.2474 48.1738 25.0511 49.0184 25.0133 49.0446 25.6364 46.7906 25.7383 46.7614 25.1123 47.6351 25.0744 47.5972 24.2736 46.7411 24.3115 46.7148 23.6854 48.9543 23.5864zM47.9204 26.0761C48.2399 26.1016 48.5364 26.252 48.7456 26.4946 48.9548 26.7373 49.0599 27.0527 49.038 27.3724 49.0162 27.692 48.8692 27.9902 48.6289 28.2022 48.3886 28.4141 48.0744 28.5228 47.7544 28.5046 47.5971 28.4926 47.4438 28.4492 47.3035 28.377 47.1632 28.3048 47.0387 28.2053 46.9375 28.0842 46.8363 27.9632 46.7603 27.8231 46.714 27.6723 46.6678 27.5214 46.6522 27.3629 46.6682 27.2059 46.6725 27.0483 46.7087 26.8931 46.7748 26.7499 46.8408 26.6067 46.9352 26.4784 47.0523 26.3728 47.1694 26.2671 47.3067 26.1863 47.4559 26.1353 47.6052 26.0843 47.7632 26.0642 47.9204 26.0761zM47.7952 27.8669C47.8734 27.8761 47.9526 27.8695 48.0281 27.8473 48.1035 27.8251 48.1738 27.7878 48.2344 27.7378 48.2951 27.6877 48.345 27.6258 48.3812 27.5559 48.4173 27.4861 48.4389 27.4096 48.4446 27.3311 48.4489 27.2537 48.4377 27.1761 48.4117 27.1031 48.3856 27.03 48.3452 26.9629 48.2929 26.9057 48.2405 26.8484 48.1773 26.8022 48.1068 26.7698 48.0363 26.7373 47.9601 26.7193 47.8826 26.7167 47.8047 26.7074 47.7257 26.714 47.6504 26.736 47.5751 26.758 47.505 26.795 47.4443 26.8448 47.3837 26.8946 47.3337 26.9561 47.2974 27.0256 47.2611 27.0952 47.2393 27.1714 47.2332 27.2496 47.2285 27.3272 47.2394 27.4051 47.2652 27.4785 47.2911 27.5519 47.3315 27.6193 47.3838 27.6769 47.4362 27.7344 47.4996 27.7809 47.5703 27.8135 47.641 27.8462 47.7174 27.8643 47.7952 27.8669zM47.7017 28.8278C47.8561 28.8595 48.0027 28.9218 48.1328 29.0109 48.2628 29.1001 48.3737 29.2144 48.4589 29.3471 48.5441 29.4798 48.6019 29.6282 48.6289 29.7835 48.6559 29.9389 48.6515 30.0981 48.6161 30.2517 48.5917 30.4069 48.5361 30.5556 48.4527 30.6888 48.3694 30.8219 48.2599 30.9369 48.1309 31.0266 48.002 31.1164 47.8562 31.1792 47.7023 31.2111 47.5485 31.2431 47.3898 31.2436 47.2357 31.2126 47.0812 31.1809 46.9347 31.1187 46.8046 31.0295 46.6746 30.9403 46.5637 30.826 46.4785 30.6933 46.3933 30.5606 46.3355 30.4123 46.3085 30.2569 46.2815 30.1015 46.2858 29.9424 46.3213 29.7887 46.3457 29.6335 46.4013 29.4848 46.4846 29.3517 46.568 29.2185 46.6775 29.1036 46.8064 29.0138 46.9354 28.924 47.0812 28.8613 47.235 28.8293 47.3889 28.7973 47.5476 28.7968 47.7017 28.8278zM47.3522 30.5749C47.4286 30.5938 47.508 30.5969 47.5856 30.5842 47.6633 30.5715 47.7375 30.5432 47.8039 30.5011 47.8703 30.4589 47.9275 30.4037 47.972 30.3388 48.0165 30.2739 48.0474 30.2007 48.0628 30.1236 48.0761 30.0478 48.0744 29.9702 48.0575 29.8951 48.0407 29.8201 48.0092 29.7491 47.9648 29.6863 47.9204 29.6235 47.864 29.5701 47.7988 29.5292 47.7337 29.4883 47.661 29.4607 47.5852 29.448 47.509 29.4292 47.4298 29.4259 47.3523 29.4384 47.2748 29.4509 47.2007 29.479 47.1343 29.5208 47.068 29.5627 47.0107 29.6176 46.9661 29.6821 46.9215 29.7467 46.8904 29.8196 46.8746 29.8965 46.8587 29.9735 46.8585 30.0529 46.8741 30.13 46.8897 30.2071 46.9207 30.2802 46.9653 30.345 47.01 30.4098 47.0673 30.4648 47.1337 30.5068 47.2002 30.5488 47.2745 30.577 47.3522 30.5895V30.5749zM48.1939 31.9377L48.0075 32.5201 46.3738 32.0309 46.0476 33.0763 45.5234 32.9103 46.0389 31.2709 48.1939 31.9377zM5.71035 35.4058C5.83771 35.3495 5.98173 35.3438 6.11312 35.3899 6.2445 35.4361 6.35337 35.5305 6.41757 35.6541 6.48176 35.7776 6.49646 35.921 6.45867 36.055 6.42089 36.189 6.33345 36.3036 6.21416 36.3754 6.08556 36.4418 5.93584 36.4545 5.79794 36.4105 5.66004 36.3665 5.54525 36.2696 5.47883 36.141 5.41241 36.0124 5.39979 35.8627 5.44375 35.7248 5.48772 35.587 5.58466 35.4722 5.71326 35.4058H5.71035zM6.56696 38.5215L7.10863 38.5536C7.09382 38.8216 7.17087 39.0866 7.32704 39.3048 7.42897 39.4417 7.52799 39.4796 7.61826 39.4213 7.69107 39.366 7.69107 39.2728 7.56584 38.9845 7.36782 38.5332 7.25424 38.1517 7.62991 37.8751 7.96773 37.6247 8.41038 37.712 8.73363 38.1488 8.9433 38.4121 9.05269 38.7413 9.04232 39.0777H8.50066C8.501 38.8491 8.43195 38.6257 8.30263 38.4371 8.21235 38.3148 8.11625 38.2944 8.05218 38.341 7.97064 38.4022 7.97937 38.4924 8.10751 38.7865 8.32592 39.2728 8.38417 39.6339 8.04344 39.8843 7.67068 40.1609 7.23385 40.0299 6.90769 39.5931 6.6664 39.2899 6.54512 38.9085 6.56696 38.5215zM9.34194 39.8581L8.89055 39.3514 9.29826 38.9874 10.6175 40.4754 10.2098 40.8423 9.75838 40.3356 8.48285 41.4742 8.06641 41.0054 9.34194 39.8581zM10.7517 40.5948L11.5409 41.3141C11.6456 41.3966 11.733 41.499 11.798 41.6155 11.863 41.7319 11.9043 41.8601 11.9195 41.9926 11.9227 42.0897 11.9058 42.1864 11.8697 42.2766 11.8336 42.3669 11.7791 42.4486 11.7098 42.5167 11.6122 42.6306 11.4812 42.711 11.3354 42.7466 11.1897 42.7821 11.0364 42.7709 10.8973 42.7147L10.775 43.6786 10.2421 43.1923 10.3673 42.3798 10.1693 42.1993 9.70913 42.7031 9.24609 42.2808 10.7517 40.5948zM10.7866 42.0974C10.9439 42.2401 11.1041 42.2459 11.2147 42.1265 11.3341 41.9955 11.2992 41.8353 11.1448 41.6985L10.8536 41.4073 10.4838 41.8178 10.7866 42.0974zM12.4526 42.1031L12.9506 42.4904 11.5586 44.2609 11.0664 43.8823 12.4526 42.1031zM13.0644 42.6099L13.6468 43.0001 13.2828 44.4764 14.503 43.5679 15.0854 43.9464 13.0469 45.3383 12.5635 45.0151 13.0644 42.6099zM15.1929 43.9988L16.8034 44.8432 16.5587 45.315 15.4958 44.7617 15.3385 45.0529 16.2996 45.5566 16.0695 45.9934 15.1085 45.4926 14.9425 45.81 16.02 46.3691 15.7725 46.8437 14.1475 46.008 15.1929 43.9988zM17.8314 45.2742L19.535 45.8798 19.3516 46.3982 18.2362 46.008 18.1081 46.369 19.1157 46.7272 18.941 47.2164 17.9333 46.8582 17.6625 47.6212 17.0801 47.4115 17.8314 45.2742zM19.3714 47.033C19.4452 46.7194 19.6405 46.448 19.9144 46.2785 20.1882 46.1089 20.5183 46.0551 20.8319 46.1288 21.1454 46.2026 21.4169 46.3979 21.5864 46.6717 21.756 46.9456 21.8099 47.2756 21.7361 47.5891 21.6507 47.8905 21.4523 48.1473 21.1823 48.3062 20.9123 48.465 20.5915 48.5137 20.2866 48.4421 19.9816 48.3704 19.716 48.184 19.545 47.9216 19.374 47.6591 19.3108 47.3408 19.3685 47.033H19.3714zM21.1187 47.4465C21.1401 47.3709 21.146 47.2918 21.136 47.214 21.126 47.1361 21.1004 47.061 21.0607 46.9933 21.021 46.9256 20.968 46.8666 20.9049 46.8198 20.8418 46.7731 20.7699 46.7396 20.6935 46.7214 20.6182 46.7048 20.5402 46.7033 20.4643 46.717 20.3883 46.7308 20.3159 46.7595 20.2511 46.8015 20.1863 46.8435 20.1306 46.8979 20.087 46.9617 20.0435 47.0254 20.0131 47.0971 19.9975 47.1727 19.9761 47.2479 19.9699 47.3266 19.9795 47.4042 19.9891 47.4817 20.0142 47.5566 20.0534 47.6242 20.0925 47.6919 20.1448 47.751 20.2073 47.798 20.2698 47.845 20.341 47.8789 20.4169 47.8978 20.4925 47.9149 20.5707 47.9167 20.647 47.9031 20.7233 47.8896 20.7961 47.861 20.8612 47.819 20.9263 47.7769 20.9823 47.7223 21.026 47.6584 21.0697 47.5944 21.1003 47.5224 21.1158 47.4465H21.1187zM22.2318 46.5118L23.2919 46.6371C23.4249 46.642 23.5557 46.6738 23.6762 46.7303 23.7968 46.7868 23.9048 46.867 23.9937 46.9661 24.0529 47.0431 24.0958 47.1313 24.1199 47.2255 24.1439 47.3196 24.1485 47.4176 24.1335 47.5135 24.1223 47.6642 24.0635 47.8074 23.9656 47.9226 23.8677 48.0377 23.7358 48.1188 23.5889 48.1542L24.0316 48.9986 23.3152 48.92 22.9424 48.1862 22.6745 48.1542 22.5959 48.8355 21.9727 48.7627 22.2318 46.5118zM23.1375 47.7115C23.3501 47.7348 23.4812 47.6475 23.5016 47.4844 23.5219 47.3068 23.4054 47.1932 23.2103 47.1787L22.8026 47.1292 22.7153 47.662 23.1375 47.7115zM25.3096 46.7855L27.1268 46.7418V47.2747L25.9269 47.3038V47.6445L27.0132 47.6212V48.1133L25.9269 48.1395V48.4977L27.1413 48.4686V49.0015L25.3066 49.0451 25.3096 46.7855zM28.1197 47.7552L27.2461 46.7448 27.9596 46.6545 28.4372 47.2369 28.7575 46.5555 29.4564 46.4681 28.8565 47.6562 29.771 48.7045 29.0546 48.7948 28.5391 48.1745 28.1926 48.9025 27.4936 48.9928 28.1197 47.7552zM29.6493 47.5833C29.6129 47.4316 29.6074 47.2741 29.633 47.1201 29.6587 46.9662 29.7151 46.819 29.7987 46.6873 29.8824 46.5555 29.9917 46.442 30.1201 46.3533 30.2485 46.2646 30.3934 46.2026 30.5463 46.171 30.7262 46.1213 30.9157 46.1177 31.0974 46.1604 31.279 46.2032 31.447 46.2909 31.5859 46.4156L31.2102 46.8815C31.1389 46.8145 31.0523 46.7659 30.9579 46.74 30.8634 46.7141 30.7641 46.7117 30.6686 46.733 30.596 46.7521 30.5281 46.7856 30.4688 46.8316 30.4095 46.8776 30.3602 46.9351 30.3237 47.0007 30.2873 47.0662 30.2645 47.1385 30.2567 47.2131 30.2489 47.2877 30.2562 47.3631 30.2783 47.4348 30.2892 47.5098 30.3151 47.5819 30.3546 47.6465 30.3942 47.7112 30.4464 47.7672 30.5083 47.811 30.5701 47.8549 30.6402 47.8857 30.7143 47.9016 30.7884 47.9175 30.865 47.9182 30.9394 47.9036 31.0376 47.8807 31.1285 47.8339 31.2043 47.7674 31.28 47.7008 31.338 47.6166 31.3733 47.5222L31.9092 47.7435C31.815 47.9766 31.6494 48.1739 31.4362 48.3072 31.2229 48.4405 30.973 48.5029 30.7221 48.4854 30.4713 48.4679 30.2324 48.3716 30.0397 48.21 29.8469 48.0485 29.7103 47.8301 29.6493 47.5862V47.5833zM31.6729 45.9324L33.391 45.35 33.5629 45.8537 32.43 46.241 32.5407 46.5642 33.5658 46.2148 33.7259 46.6807 32.7008 47.0301 32.8144 47.3708 33.9647 46.9777 34.1366 47.4815 32.3892 48.0639 31.6729 45.9324zM33.6328 45.2422L34.2152 44.986 34.9171 46.5467 35.916 46.0983 36.1402 46.5962 34.5705 47.3038 33.6328 45.2422zM35.3564 44.4501L35.9039 44.1415 36.7426 45.6324 37.6949 45.0937 37.9658 45.5712 36.4689 46.4157 35.3564 44.4501zM37.0225 43.4922L38.5164 42.4526 38.8076 42.8923 37.8262 43.5766 38.0213 43.8678 38.9096 43.2476 39.2008 43.6523 38.3155 44.2609 38.5193 44.5521 39.5153 43.8591 39.8211 44.2959 38.3155 45.3442 37.0225 43.4922zM38.7119 42.3157L39.1517 41.9313 40.634 42.2225 39.8535 41.3227 40.3194 40.918 41.7988 42.6185 41.3853 42.9796 39.8477 42.6884 40.6573 43.6231 40.1913 44.0279 38.7119 42.3157zM41.3123 41.5267C41.1963 41.4218 41.1026 41.2947 41.0369 41.1529 40.9711 41.0111 40.9345 40.8575 40.9293 40.7012 40.9242 40.545 40.9505 40.3893 41.0068 40.2435 41.0631 40.0976 41.1481 39.9646 41.2569 39.8523 41.3774 39.7099 41.5317 39.6 41.7058 39.5329 41.8798 39.4657 42.068 39.4434 42.2529 39.4679L42.2034 40.0503C42.1068 40.0354 42.008 40.0443 41.9156 40.0763 41.8232 40.1083 41.7401 40.1623 41.6734 40.2338 41.624 40.2904 41.5866 40.3565 41.5634 40.428 41.5402 40.4994 41.5318 40.5749 41.5386 40.6497 41.5454 40.7246 41.5673 40.7972 41.603 40.8634 41.6387 40.9295 41.6874 40.9878 41.7462 41.0345 41.7984 41.0893 41.8612 41.133 41.9308 41.1628 42.0004 41.1926 42.0753 41.208 42.151 41.208 42.2267 41.208 42.3016 41.1926 42.3712 41.1628 42.4407 41.133 42.5035 41.0893 42.5558 41.0345 42.624 40.9599 42.6727 40.8695 42.6976 40.7714 42.7225 40.6734 42.7228 40.5707 42.6985 40.4726L43.2663 40.3561C43.3198 40.6016 43.2942 40.8577 43.1933 41.0877 43.0924 41.3178 42.9213 41.5101 42.7045 41.637 42.4877 41.764 42.2362 41.8192 41.9862 41.7946 41.7361 41.7701 41.5003 41.6671 41.3123 41.5005V41.5267zM42.0547 39.0194L43.1438 37.5635 43.5719 37.8838 42.8526 38.8418 43.1264 39.0456 43.7787 38.1721 44.1718 38.4633 43.5224 39.3368 43.8136 39.5523 44.5417 38.5826 44.9698 38.9 43.869 40.356 42.0547 39.0194zM45.2406 36.2561C45.1116 36.1904 45.0139 36.0762 44.9692 35.9386 44.9244 35.801 44.9361 35.6512 45.0018 35.5223 45.0674 35.3933 45.1816 35.2957 45.3192 35.2509 45.4569 35.2061 45.6066 35.2178 45.7356 35.2835 45.7995 35.316 45.8563 35.3608 45.9029 35.4152 45.9495 35.4697 45.9848 35.5328 46.007 35.6009 46.0292 35.6691 46.0377 35.7409 46.0321 35.8124 46.0265 35.8838 46.0069 35.9534 45.9744 36.0173 45.9419 36.0812 45.8971 36.138 45.8427 36.1845 45.7882 36.2311 45.7251 36.2665 45.6569 36.2887 45.5888 36.3108 45.517 36.3194 45.4455 36.3138 45.3741 36.3082 45.3044 36.2886 45.2406 36.2561z" fill="#C13044"></path>
    <path d="M25.6942 1.1007C30.5583 1.1007 35.3132 2.54294 39.3576 5.24503C43.4019 7.94712 46.5541 11.7877 48.4155 16.2811C50.277 20.7746 50.764 25.719 49.815 30.4892C48.8661 35.2594 46.5238 39.6411 43.0844 43.0802C39.6449 46.5193 35.2628 48.8614 30.4921 49.8102C25.7215 50.759 20.7766 50.2721 16.2827 48.4108C11.7889 46.5496 7.94791 43.3977 5.24555 39.3537C2.54319 35.3098 1.10082 30.5553 1.10082 25.6917C1.10043 22.4623 1.7363 19.2644 2.9721 16.2807C4.2079 13.297 6.01942 10.5859 8.3032 8.30238C10.587 6.01882 13.2983 4.20748 16.2823 2.9718C19.2663 1.73612 22.4644 1.10032 25.6942 1.1007ZM25.6942 0C20.6124 0 15.6447 1.50679 11.4193 4.32983C7.19389 7.15287 3.9006 11.1654 1.95587 15.8599C0.0111328 20.5545 -0.497698 25.7202 0.493718 30.7039C1.48513 35.6876 3.93227 40.2654 7.52567 43.8585C11.1191 47.4515 15.6973 49.8984 20.6815 50.8897C25.6657 51.8811 30.8319 51.3723 35.5269 49.4277C40.2219 47.4832 44.2348 44.1902 47.0581 39.9652C49.8815 35.7403 51.3884 30.773 51.3884 25.6917C51.3807 18.8802 48.6712 12.3499 43.8542 7.53344C39.0373 2.71698 32.5064 0.00770707 25.6942 0V0Z" fill="#2C3D6B"></path>
    <path d="M21.9433 33.0938C21.9433 30.54 21.0696 28.4639 20.094 26.5042L16.2325 26.9671C17.1789 28.8628 17.9652 30.7526 17.9652 33.0821 17.9652 35.8543 16.8673 37.9916 15.7025 40.2571 15.5568 40.5482 15.4112 40.822 15.2656 41.1102 16.2872 41.799 17.375 42.3843 18.5127 42.8574 18.836 42.1411 19.1942 41.4335 19.564 40.7142 20.7347 38.4575 21.9433 36.1076 21.9433 33.0938zM13.3232 18.2867C13.3232 20.8405 14.1969 22.9196 15.1725 24.8764L19.034 24.4134C18.0876 22.5177 17.2867 20.6279 17.2867 18.2984 17.2867 15.5292 18.3846 13.3889 19.5495 11.1264 20.1595 9.99719 20.6965 8.83003 21.157 7.63208 19.4097 8.06632 17.7351 8.75298 16.1859 9.67041L15.6879 10.6488C14.5318 12.9259 13.3232 15.2758 13.3232 18.2867zM38.0623 33.0938C38.0623 30.54 37.1886 28.4639 36.216 26.5042L32.3544 26.973C33.3009 28.8657 34.1017 30.7584 34.1017 33.088 34.1017 35.8601 33.0009 37.9974 31.836 40.2629 31.2266 41.3924 30.6897 42.5595 30.2285 43.7572 31.9767 43.3229 33.6523 42.6363 35.2025 41.7188 35.3656 41.3927 35.5316 41.0666 35.7005 40.7404 36.8537 38.4575 38.0623 36.1076 38.0623 33.0938zM31.8217 10.6517C30.6568 12.9259 29.4453 15.2758 29.4453 18.2867 29.4453 20.8433 30.319 22.9224 31.2945 24.8821L35.1561 24.4133C34.2096 22.5177 33.4088 20.6279 33.4088 18.2983 33.4088 15.5291 34.5096 13.3889 35.6745 11.1263 35.8201 10.8351 35.9657 10.5439 36.1084 10.2731 35.0874 9.58494 34.0007 8.9997 32.8642 8.526 32.5526 9.22486 32.1915 9.93245 31.8217 10.6517z" fill="#C13044"></path>
    <path d="M36.6034 9.27146C33.3792 7.11824 29.589 5.96912 25.7118 5.96936H25.6943C23.1034 5.96802 20.5375 6.47698 18.1432 7.46718 15.7489 8.45737 13.5732 9.90941 11.7401 11.7404 8.03809 15.4382 5.95681 20.4551 5.9541 25.6873 5.9514 30.9195 8.0275 35.9385 11.7257 39.6402 15.4239 43.3418 20.4412 45.4229 25.674 45.4256H25.6943C29.9332 45.43 34.0606 44.0684 37.4646 41.5428 40.8687 39.0172 43.3682 35.4619 44.5925 31.4042 45.8169 27.3465 45.701 23.0022 44.2619 19.0155 42.8229 15.0288 40.1373 11.612 36.6034 9.27146zM18.5129 42.8748C14.5606 41.2308 11.2958 38.275 9.26832 34.5053 7.24088 30.7356 6.57474 26.3824 7.38213 22.179 8.18951 17.9756 10.4211 14.1789 13.7009 11.4284 16.9807 8.67797 21.1084 7.14183 25.3886 7.0788 24.9325 8.30686 24.3895 9.50086 23.7636 10.6517 22.5987 12.9259 21.3843 15.2758 21.3843 18.2867 21.3843 21.2976 22.5929 23.6504 23.7636 25.9159 24.9343 28.1813 26.0263 30.3187 26.0263 33.0879 26.0263 35.8571 24.9255 37.9974 23.7636 40.2628 23.1164 41.4567 22.5558 42.6955 22.0861 43.9697 20.8611 43.7265 19.6639 43.3597 18.5129 42.8748zM35.1881 41.71C32.4055 43.3646 29.2372 44.2593 26.0001 44.3045 26.4562 43.0765 26.9992 41.8825 27.6251 40.7316 28.79 38.4574 30.0044 36.1075 30.0044 33.0937 30.0044 30.0799 28.7929 27.7329 27.6251 25.4587 26.4573 23.1845 25.3624 21.0588 25.3624 18.2867 25.3624 15.5146 26.4602 13.3772 27.6251 11.1147 28.2706 9.92499 28.8311 8.69115 29.3025 7.4224 33.0021 8.15334 36.3926 9.99007 39.0255 12.6896 41.6584 15.3892 43.4096 18.8244 44.0475 22.5407 44.6854 26.2571 44.18 30.0796 42.598 33.5025 41.0161 36.9254 38.4321 39.7874 35.1881 41.71zM60.1309 29.2995V22.0023H61.7384V29.2995H60.1309zM68.6811 29.2995L65.1458 24.6609V29.2995H63.5615V22.0023H65.0409L68.4627 26.4983V22.0023H70.047V29.2995H68.6811zM75.1049 23.4816V29.3054H73.5003V23.4816H71.2783V22.0023H77.3269V23.4816H75.1049zM78.5557 29.2995V22.0023H84.051V23.4321H80.1399V24.9113H83.5792V26.3411H80.1399V27.8727H84.1034V29.2995H78.5557zM89.9861 29.2996L88.4193 26.9701H87.1583V29.2996H85.5537V22.0024H88.8794C89.614 21.9551 90.3401 22.1812 90.918 22.6372 91.1625 22.8607 91.3544 23.1357 91.4798 23.4424 91.6052 23.749 91.6609 24.0797 91.6431 24.4105V24.4309C91.6687 24.9515 91.5156 25.4652 91.2092 25.8868 90.9185 26.262 90.5264 26.546 90.0792 26.7051L91.8615 29.3258 89.9861 29.2996zM90.0152 24.495C90.0258 24.3474 90.0012 24.1995 89.9435 24.0633 89.8857 23.9272 89.7965 23.8066 89.6832 23.7116 89.4107 23.5249 89.084 23.4338 88.7542 23.4525H87.1583V25.5461H88.7862C89.1156 25.5646 89.4401 25.4609 89.6977 25.255 89.8028 25.1609 89.8858 25.0448 89.9407 24.9149 89.9956 24.785 90.021 24.6446 90.0152 24.5037V24.495zM98.2017 29.2995L94.6663 24.6609V29.2995H93.082V22.0023H94.5614L97.9803 26.4983V22.0023H99.5675V29.2995H98.2017zM106.752 29.2996L106.085 27.6631H102.998L102.331 29.2996H100.691L103.822 21.95H105.301L108.429 29.2996H106.752zM104.547 23.8776L103.577 26.2421H105.517L104.547 23.8776zM112.862 23.4816V29.3054H111.245V23.4816H109.023V22.0023H115.072V23.4816H112.862zM116.386 29.2995V22.0023H117.993V29.2995H116.386zM126.971 27.1157C126.78 27.5686 126.502 27.9794 126.152 28.3246 125.802 28.6699 125.388 28.9428 124.932 29.1278 124.437 29.3271 123.908 29.4261 123.374 29.419 122.842 29.427 122.313 29.328 121.819 29.1278 121.363 28.9416 120.947 28.6698 120.593 28.327 120.248 27.9878 119.975 27.5828 119.789 27.136 119.597 26.6747 119.498 26.1799 119.498 25.6801V25.6597C119.497 25.1598 119.596 24.6647 119.789 24.2038 119.981 23.7562 120.255 23.349 120.599 23.0041 120.951 22.6554 121.369 22.3794 121.828 22.1916 122.324 21.992 122.854 21.893 123.389 21.9004 123.92 21.8927 124.448 21.9917 124.941 22.1916 125.397 22.3788 125.813 22.6516 126.167 22.9953 126.51 23.3297 126.783 23.7285 126.971 24.1688 127.163 24.6301 127.262 25.125 127.262 25.6248V25.6451C127.267 26.1501 127.168 26.6507 126.971 27.1157zM125.585 25.6597C125.584 25.361 125.529 25.0648 125.421 24.7861 125.319 24.5141 125.162 24.2655 124.961 24.0552 124.762 23.8458 124.524 23.6776 124.259 23.5602 123.984 23.4391 123.687 23.3776 123.386 23.3797 123.079 23.3754 122.774 23.4349 122.492 23.5544 122.231 23.6686 121.997 23.8363 121.805 24.0465 121.604 24.2494 121.444 24.4885 121.333 24.7512 121.225 25.0298 121.171 25.3261 121.173 25.6248V25.6451C121.172 25.9437 121.226 26.2398 121.333 26.5187 121.545 27.064 121.963 27.5035 122.498 27.7417 122.779 27.8669 123.084 27.9295 123.392 27.9252 123.692 27.9269 123.989 27.8664 124.265 27.7475 124.528 27.6349 124.764 27.4682 124.958 27.2583 125.151 27.0463 125.303 26.8005 125.407 26.5333 125.515 26.2549 125.571 25.9585 125.57 25.6597H125.585zM133.8 29.2995L130.265 24.6609V29.2995H128.678V22.0023H130.175L133.579 26.4983V22.0023H135.166V29.2995H133.8zM142.35 29.2996L141.681 27.6631H138.596L137.93 29.2996H136.29L139.421 21.95H140.9L144.028 29.2996H142.35zM140.14 23.8776L139.17 26.2421H141.11L140.14 23.8776zM145.155 29.2995V22.0023H146.774V27.8523H150.415V29.3083L145.155 29.2995zM159.818 28.1086C159.692 28.3875 159.504 28.6336 159.268 28.8278 159.019 29.0272 158.733 29.1756 158.426 29.2646 158.076 29.3696 157.711 29.4207 157.346 29.416 156.787 29.4133 156.232 29.3148 155.706 29.1248 155.168 28.9317 154.674 28.6349 154.25 28.2513L155.199 27.1156C155.513 27.3745 155.858 27.5917 156.227 27.7621 156.589 27.9242 156.981 28.0057 157.378 28.0008 157.649 28.0162 157.919 27.9535 158.155 27.8203 158.241 27.7672 158.312 27.6925 158.361 27.6037 158.409 27.5148 158.434 27.4148 158.432 27.3136V27.2933C158.436 27.193 158.416 27.0932 158.374 27.0021 158.323 26.9088 158.247 26.8313 158.155 26.7778 158.013 26.6918 157.861 26.6215 157.704 26.5682 157.515 26.5012 157.264 26.4255 156.958 26.3498 156.618 26.2731 156.282 26.1759 155.954 26.0586 155.677 25.9549 155.419 25.8085 155.188 25.6247 154.98 25.4623 154.813 25.2527 154.701 25.0132 154.579 24.7275 154.52 24.4184 154.53 24.1076V24.0873C154.524 23.7763 154.588 23.468 154.716 23.1846 154.839 22.9186 155.018 22.6822 155.24 22.4915 155.475 22.2893 155.748 22.1368 156.044 22.0431 156.377 21.9347 156.725 21.8816 157.075 21.8859 157.576 21.8813 158.075 21.963 158.548 22.1275 158.995 22.2862 159.413 22.5185 159.783 22.8147L158.95 24.0232C158.649 23.8163 158.328 23.6398 157.992 23.4961 157.694 23.3712 157.375 23.3059 157.052 23.3039 156.804 23.2856 156.557 23.3502 156.35 23.4874 156.277 23.5387 156.217 23.6067 156.176 23.6858 156.135 23.7648 156.114 23.8526 156.114 23.9417V23.962C156.114 24.0629 156.137 24.1625 156.181 24.2532 156.24 24.3533 156.326 24.435 156.428 24.4891 156.582 24.5746 156.745 24.6411 156.915 24.6871 157.119 24.7483 157.378 24.824 157.692 24.9055 158.028 24.9923 158.358 25.1022 158.679 25.2345 158.945 25.3422 159.192 25.4895 159.413 25.6713 159.606 25.8353 159.759 26.0402 159.862 26.2712 159.969 26.5323 160.021 26.813 160.013 27.0952V27.1156C160.024 27.4571 159.957 27.7965 159.818 28.1086zM167.24 28.6647C167.035 28.8264 166.813 28.9642 166.576 29.0753 166.326 29.1955 166.062 29.2836 165.79 29.3374 165.474 29.3984 165.154 29.4276 164.832 29.4247 164.319 29.4298 163.811 29.3307 163.338 29.1335 162.894 28.9476 162.49 28.6765 162.15 28.3357 161.813 27.9933 161.548 27.5875 161.369 27.1418 161.178 26.6802 161.079 26.1855 161.078 25.6858V25.6655C161.072 24.6727 161.453 23.7167 162.141 23.0011 162.483 22.6527 162.891 22.3764 163.341 22.1886 163.83 21.9882 164.356 21.8892 164.884 21.8975 165.197 21.8953 165.509 21.9236 165.816 21.9819 166.08 22.0315 166.337 22.1076 166.585 22.209 166.809 22.3048 167.022 22.4238 167.22 22.5643 167.416 22.6948 167.6 22.8419 167.77 23.004L166.748 24.1687C166.486 23.9284 166.192 23.7255 165.875 23.566 165.564 23.4168 165.223 23.342 164.879 23.3476 164.587 23.3445 164.298 23.4041 164.031 23.5223 163.779 23.6422 163.555 23.8138 163.373 24.0261 163.177 24.2364 163.024 24.4826 162.922 24.7511 162.816 25.0302 162.763 25.3263 162.764 25.6247V25.6451C162.764 25.9433 162.818 26.2391 162.922 26.5186 163.02 26.7862 163.167 27.0332 163.356 27.2466 163.54 27.4576 163.767 27.6265 164.022 27.7416 164.292 27.8659 164.585 27.9285 164.882 27.9251 165.248 27.9373 165.613 27.8582 165.942 27.695 166.254 27.5287 166.542 27.3222 166.801 27.0806L167.823 28.1144C167.643 28.3122 167.448 28.4962 167.24 28.6647zM173.674 29.2995V26.3702H170.712V29.2995H169.104V22.0023H170.712V24.8909H173.674V22.0023H175.278V29.2995H173.674zM184.172 27.1157C183.982 27.5692 183.704 27.9806 183.354 28.326 183.004 28.6714 182.589 28.9439 182.133 29.1278 181.134 29.5239 180.02 29.5239 179.02 29.1278 178.565 28.9416 178.15 28.6698 177.797 28.327 177.452 27.9878 177.179 27.5828 176.993 27.136 176.8 26.6752 176.701 26.18 176.702 25.6801V25.6597C176.7 25.1597 176.799 24.6643 176.993 24.2038 177.184 23.7563 177.458 23.3492 177.8 23.0041 178.153 22.6544 178.572 22.3782 179.032 22.1916 180.032 21.7955 181.145 21.7955 182.145 22.1916 182.6 22.3789 183.016 22.6517 183.368 22.9953 183.714 23.3284 183.989 23.7274 184.178 24.1688 184.372 24.6297 184.471 25.1248 184.469 25.6248V25.6452C184.472 26.1505 184.371 26.6511 184.172 27.1157zM182.786 25.6597C182.786 25.361 182.73 25.0648 182.623 24.7861 182.52 24.5148 182.365 24.2664 182.165 24.0553 181.965 23.8464 181.725 23.6783 181.461 23.5602 181.186 23.4388 180.888 23.3772 180.587 23.3797 180.281 23.3756 179.978 23.4351 179.696 23.5544 179.435 23.6682 179.2 23.8359 179.009 24.0465 178.812 24.2504 178.656 24.4895 178.549 24.7512 178.44 25.0296 178.385 25.3259 178.385 25.6248V25.6452C178.386 25.9439 178.441 26.24 178.549 26.5187 178.651 26.7892 178.807 27.0366 179.006 27.2467 179.203 27.4566 179.441 27.6249 179.705 27.7417 179.985 27.8666 180.289 27.9292 180.596 27.9252 180.896 27.9272 181.194 27.8667 181.469 27.7475 181.734 27.6357 181.971 27.4689 182.165 27.2583 182.357 27.0456 182.508 26.8 182.611 26.5333 182.72 26.2549 182.775 25.9585 182.774 25.6597H182.786zM193.037 27.1157C192.846 27.5686 192.568 27.9794 192.218 28.3247 191.869 28.6699 191.454 28.9428 190.999 29.1278 190.503 29.3275 189.972 29.4265 189.438 29.419 188.906 29.4267 188.378 29.3277 187.886 29.1278 187.433 28.941 187.021 28.6692 186.671 28.327 186.326 27.9878 186.053 27.5828 185.867 27.1361 185.675 26.6747 185.576 26.1799 185.576 25.6801V25.6597C185.573 25.1597 185.673 24.6643 185.867 24.2038 186.055 23.7504 186.328 23.3373 186.671 22.9866 187.024 22.6379 187.441 22.3619 187.9 22.1742 188.396 21.9745 188.927 21.8755 189.461 21.883 189.993 21.8753 190.521 21.9743 191.013 22.1742 191.47 22.3613 191.886 22.6341 192.239 22.9779 192.584 23.3167 192.856 23.7218 193.04 24.1688 193.234 24.6297 193.333 25.1248 193.331 25.6248V25.6452C193.334 26.1502 193.234 26.6505 193.037 27.1157zM191.648 25.6597C191.649 25.3612 191.595 25.065 191.488 24.7862 191.39 24.5083 191.238 24.2529 191.039 24.0349 190.84 23.8261 190.601 23.658 190.338 23.5399 190.062 23.4188 189.765 23.3573 189.464 23.3593 189.158 23.3553 188.855 23.4148 188.573 23.534 188.312 23.6478 188.077 23.8155 187.886 24.0261 187.682 24.2348 187.521 24.4811 187.411 24.7512 187.302 25.0296 187.247 25.3259 187.248 25.6248V25.6452C187.248 25.9439 187.304 26.24 187.411 26.5187 187.515 26.7887 187.67 27.0359 187.868 27.2467 188.066 27.456 188.304 27.6242 188.567 27.7417 188.848 27.8669 189.153 27.9295 189.461 27.9252 189.761 27.9269 190.059 27.8664 190.335 27.7476 190.6 27.6423 190.84 27.4826 191.039 27.2787 191.232 27.0667 191.384 26.8209 191.488 26.5537 191.596 26.2751 191.65 25.9787 191.648 25.6801V25.6597zM194.755 29.2995V22.0023H196.362V27.8523H200V29.3083L194.755 29.2995zM66.2588 15.4709C66.1186 15.7752 65.9104 16.0433 65.6501 16.2542 65.3739 16.4752 65.0574 16.6403 64.7182 16.7405 64.3288 16.8553 63.9244 16.9112 63.5184 16.9065 62.8974 16.9102 62.2805 16.8057 61.6954 16.5978 61.0971 16.3834 60.5476 16.0518 60.0791 15.6223L61.1304 14.3644C61.4811 14.6482 61.8667 14.886 62.2778 15.072 62.6787 15.252 63.114 15.3424 63.5533 15.337 63.858 15.3572 64.1618 15.2873 64.427 15.136 64.5235 15.078 64.6029 14.9954 64.6571 14.8967 64.7113 14.7979 64.7384 14.6866 64.7357 14.574V14.5595C64.7344 14.4591 64.7126 14.36 64.6716 14.2683 64.6139 14.1653 64.5294 14.0797 64.427 14.0208 64.2698 13.9264 64.1028 13.8492 63.929 13.7907 63.6579 13.6944 63.3818 13.6127 63.1019 13.5461 62.7231 13.45 62.3506 13.3304 61.9866 13.188 61.6831 13.0814 61.3982 12.9282 61.1421 12.7337 60.9116 12.5542 60.727 12.3227 60.6033 12.0582 60.4656 11.7417 60.3999 11.3985 60.4111 11.0536V11.0303C60.406 10.6862 60.4765 10.3452 60.6179 10.0315 60.7558 9.73715 60.9543 9.4752 61.2003 9.26274 61.4618 9.03997 61.7646 8.87078 62.0914 8.76481 62.4604 8.64719 62.8458 8.58919 63.233 8.59301 63.7888 8.58624 64.3416 8.6759 64.8667 8.85799 65.3623 9.03432 65.8249 9.29218 66.2355 9.62091L65.3123 10.9604C64.9794 10.7295 64.6231 10.5343 64.2493 10.378 63.9204 10.2384 63.5671 10.1652 63.2097 10.1625 62.9342 10.1423 62.6597 10.214 62.4292 10.3664 62.349 10.4229 62.2836 10.4979 62.2385 10.5851 62.1933 10.6723 62.1699 10.769 62.1701 10.8672V10.8905C62.1675 11.0085 62.1935 11.1254 62.2458 11.2312 62.3094 11.3417 62.4034 11.4316 62.5166 11.4903 62.687 11.5847 62.8678 11.659 63.0554 11.7117 63.2825 11.7786 63.5708 11.8602 63.929 11.9533 64.3009 12.0496 64.6658 12.1712 65.0211 12.3173 65.3079 12.441 65.5741 12.6079 65.8103 12.8124 66.0244 12.9931 66.1947 13.2201 66.3083 13.4763 66.4258 13.7654 66.4823 14.0757 66.4743 14.3877V14.411C66.4806 14.7758 66.407 15.1375 66.2588 15.4709zM73.1249 16.7929V13.5461H69.8458V16.7929H68.0664V8.70947H69.8458V11.9126H73.1249V8.70947H74.9042V16.7929H73.1249zM82.863 16.793L82.1233 14.9789H78.7044L77.9647 16.793H76.1504L79.6159 8.63965H81.2496L84.7151 16.793H82.863zM80.4138 10.7741L79.3392 13.3948H81.4855L80.4138 10.7741zM91.6407 16.7929L87.7239 11.6476V16.7929H85.9766V8.70947H87.6161L91.4019 13.6859V8.70947H93.1493V16.7929H91.6407zM100.954 16.5541C100.331 16.8143 99.6607 16.9422 98.9855 16.9298 98.3981 16.937 97.8148 16.8312 97.2673 16.6182 96.7661 16.421 96.3103 16.1238 95.9277 15.7446 95.5502 15.3697 95.2529 14.9219 95.0541 14.4284 94.8418 13.9001 94.7359 13.3351 94.7425 12.7657V12.7424C94.7344 11.9235 94.9701 11.1208 95.4197 10.4363 95.8694 9.75178 96.5125 9.21655 97.2673 8.89873 97.8053 8.67563 98.3828 8.56371 98.9651 8.56969 99.2957 8.56755 99.626 8.59287 99.9524 8.6454 100.234 8.69033 100.511 8.7615 100.779 8.85796 101.029 8.94859 101.27 9.0647 101.496 9.20448 101.723 9.34671 101.939 9.50535 102.142 9.67912L101.021 11.0302C100.875 10.9046 100.72 10.7888 100.558 10.6837 100.408 10.583 100.248 10.4972 100.081 10.4275 99.9074 10.3572 99.728 10.3036 99.5447 10.2673 99.3345 10.2274 99.1209 10.2079 98.9069 10.2091 98.5933 10.2065 98.2834 10.2762 98.0012 10.4129 97.7238 10.5455 97.4746 10.7304 97.2673 10.9574 97.0526 11.1891 96.8845 11.46 96.7723 11.7553 96.651 12.0672 96.5897 12.3991 96.5917 12.7337V12.757C96.5884 13.1059 96.6497 13.4524 96.7723 13.7791 96.8855 14.0826 97.0577 14.3607 97.279 14.5973 97.4977 14.8306 97.7625 15.0161 98.0565 15.1418 98.3689 15.273 98.705 15.3384 99.0438 15.334 99.6392 15.3552 100.226 15.1859 100.718 14.8507V13.6859H98.9273V12.1368H102.439V15.6485C101.992 16.023 101.492 16.3283 100.954 16.5541zM109.207 16.7929V13.5461H105.928V16.7929H104.148V8.70947H105.928V11.9126H109.207V8.70947H110.986V16.7929H109.207zM118.945 16.793L118.205 14.9789H114.786L114.047 16.793H112.232L115.698 8.63965H117.337L120.803 16.793H118.945zM116.487 10.7741L115.413 13.3948H117.562L116.487 10.7741zM122.131 16.7929V8.70947H123.91V16.7929H122.131zM135.023 15.4709C134.883 15.7753 134.675 16.0433 134.415 16.2542 134.139 16.4758 133.822 16.641 133.483 16.7405 133.093 16.8553 132.689 16.9112 132.283 16.9065 131.664 16.9101 131.049 16.8057 130.466 16.5978 129.867 16.3848 129.317 16.053 128.85 15.6224L129.898 14.3644C130.25 14.6478 130.637 14.8855 131.048 15.072 131.449 15.2514 131.885 15.3419 132.324 15.337 132.628 15.3565 132.932 15.2867 133.197 15.1361 133.293 15.0774 133.372 14.9946 133.426 14.896 133.479 14.7973 133.506 14.6863 133.503 14.5741V14.5595C133.503 14.4589 133.481 14.3596 133.439 14.2683 133.383 14.1654 133.299 14.0798 133.197 14.0208 133.04 13.9275 132.873 13.8504 132.7 13.7908 132.427 13.6944 132.15 13.6128 131.87 13.5462 131.492 13.4571 131.121 13.3453 130.757 13.2113 130.454 13.1041 130.169 12.9509 129.913 12.757 129.682 12.5776 129.498 12.3461 129.374 12.0815 129.237 11.7648 129.172 11.4216 129.185 11.0769V11.0536C129.178 10.7097 129.248 10.3688 129.388 10.0548 129.526 9.76 129.724 9.49791 129.971 9.28606 130.231 9.06362 130.533 8.89445 130.859 8.78812 131.228 8.67051 131.613 8.61251 132.001 8.61632 132.556 8.60956 133.109 8.69921 133.634 8.88131 134.122 9.04863 134.58 9.29452 134.988 9.60928L134.062 10.9488C133.73 10.7179 133.373 10.5227 132.999 10.3664 132.67 10.2268 132.317 10.1536 131.96 10.1509 131.685 10.1302 131.411 10.202 131.182 10.3547 131.101 10.4108 131.035 10.4856 130.99 10.5729 130.944 10.6601 130.92 10.7571 130.92 10.8556V10.8789C130.918 10.9969 130.944 11.1137 130.996 11.2196 131.061 11.3302 131.156 11.4201 131.27 11.4787 131.44 11.5736 131.621 11.6479 131.808 11.7 132.036 11.767 132.324 11.8485 132.682 11.9417 133.055 12.0379 133.421 12.1595 133.777 12.3057 134.068 12.4319 134.337 12.6028 134.575 12.8124 134.79 12.9923 134.96 13.2195 135.073 13.4763 135.192 13.7652 135.249 14.0755 135.242 14.3877V14.411C135.247 14.776 135.173 15.1378 135.023 15.4709zM136.873 16.7929V8.70947H138.652V16.7929H136.873zM146.34 16.7929L142.426 11.6476V16.7929H140.679V8.70947H142.318L146.104 13.6859V8.70947H147.851V16.7929H146.34zM155.656 16.5541C155.033 16.8141 154.363 16.942 153.688 16.9298 153.097 16.9385 152.511 16.8327 151.961 16.6182 151.461 16.4265 151.007 16.1339 150.626 15.7586 150.246 15.3833 149.946 14.9335 149.747 14.4372 149.536 13.9086 149.43 13.3437 149.436 12.7745V12.7512C149.431 12.1938 149.539 11.6411 149.753 11.1264 149.957 10.6322 150.254 10.1815 150.627 9.79853 151.011 9.41294 151.467 9.10713 151.969 8.89875 152.507 8.67535 153.085 8.56341 153.667 8.56971 153.998 8.5678 154.328 8.59312 154.654 8.64542 154.935 8.6907 155.211 8.76186 155.479 8.85799 155.729 8.94801 155.969 9.06415 156.195 9.2045 156.422 9.34598 156.638 9.50465 156.841 9.67914L155.723 11.0303C155.577 10.9046 155.422 10.7889 155.26 10.6837 154.952 10.4786 154.607 10.337 154.244 10.2673 154.035 10.2275 153.822 10.208 153.609 10.2091 153.294 10.2067 152.984 10.2764 152.7 10.4129 152.422 10.5449 152.171 10.7299 151.964 10.9575 151.748 11.189 151.579 11.4599 151.466 11.7553 151.345 12.0673 151.285 12.3993 151.288 12.7337V12.757C151.284 13.1057 151.344 13.4522 151.466 13.7791 151.579 14.0833 151.752 14.3616 151.975 14.5973 152.195 14.8313 152.46 15.0167 152.756 15.1419 153.068 15.273 153.404 15.3385 153.743 15.3341 154.339 15.3557 154.927 15.1863 155.42 14.8507V13.6859H153.629V12.1368H157.138V15.6485C156.693 16.0236 156.193 16.329 155.656 16.5541zM164.868 16.793L164.128 14.9789H160.709L159.97 16.793H158.155L161.621 8.63965H163.26L166.726 16.793H164.868zM162.419 10.7741L161.344 13.3948H163.493L162.419 10.7741zM174.119 12.7628C173.956 13.1073 173.717 13.4108 173.42 13.651 173.112 13.8952 172.759 14.0772 172.381 14.1868 171.967 14.3092 171.537 14.3701 171.105 14.3673H169.751V16.7929H167.975V8.70947H171.277C171.718 8.70249 172.157 8.77042 172.576 8.91039 172.936 9.03543 173.266 9.23373 173.546 9.49277 173.811 9.73597 174.021 10.034 174.16 10.3663 174.306 10.7269 174.378 11.113 174.373 11.502V11.5253C174.382 11.9516 174.295 12.3745 174.119 12.7628zM172.57 11.5369C172.581 11.3653 172.552 11.1934 172.485 11.0351 172.418 10.8768 172.314 10.7365 172.183 10.6255 171.878 10.4032 171.505 10.2931 171.129 10.3139H169.751V12.7861H171.161C171.54 12.8088 171.913 12.6824 172.2 12.4338 172.32 12.3223 172.414 12.1869 172.478 12.0364 172.542 11.8859 172.573 11.7236 172.57 11.5602V11.5369zM183.602 14.3731C183.391 14.8692 183.086 15.3201 182.705 15.7009 182.315 16.0877 181.852 16.3926 181.342 16.5978 180.235 17.0366 179.001 17.0366 177.894 16.5978 177.391 16.3955 176.931 16.099 176.54 15.7242 176.157 15.3497 175.854 14.9021 175.649 14.408 175.435 13.8943 175.327 13.3426 175.331 12.7861V12.7628C175.327 12.2048 175.437 11.6519 175.654 11.138 175.865 10.6425 176.169 10.1919 176.548 9.81014 176.939 9.42291 177.402 9.11706 177.911 8.91037 178.46 8.68777 179.047 8.57593 179.638 8.58132 180.228 8.57484 180.814 8.68673 181.359 8.91037 181.864 9.11698 182.325 9.41847 182.717 9.7985 183.099 10.1741 183.402 10.6226 183.608 11.1176 183.822 11.6312 183.93 12.183 183.925 12.7395V12.7628C183.928 13.3159 183.818 13.8638 183.602 14.3731zM182.064 12.7512C182.067 12.4158 182.007 12.083 181.887 11.7699 181.772 11.4698 181.6 11.1954 181.379 10.9625 181.158 10.7296 180.893 10.5428 180.599 10.4129 180.29 10.2749 179.954 10.2054 179.615 10.2091 179.276 10.2051 178.939 10.2726 178.628 10.4071 178.34 10.5328 178.081 10.7173 177.868 10.9487 177.653 11.1828 177.484 11.4555 177.37 11.7524 177.249 12.0634 177.189 12.3944 177.192 12.7279V12.7512C177.19 13.0865 177.25 13.4193 177.37 13.7325 177.484 14.0328 177.657 14.3072 177.879 14.5391 178.098 14.7714 178.36 14.9584 178.651 15.0894 178.962 15.2263 179.299 15.2948 179.638 15.2903 179.976 15.2941 180.312 15.2277 180.623 15.0952 180.913 14.9736 181.175 14.7909 181.389 14.5595 181.603 14.3259 181.772 14.0543 181.887 13.7587 182.007 13.4476 182.067 13.1166 182.064 12.7832V12.7512zM190.416 16.7929L188.668 14.2042H187.271V16.7929H185.506V8.70947H189.201C190.172 8.70947 190.922 8.9434 191.45 9.41124 191.72 9.65962 191.932 9.96461 192.07 10.3044 192.208 10.6442 192.27 11.0104 192.25 11.3768V11.4001C192.275 11.9715 192.107 12.5346 191.773 12.9987 191.448 13.4127 191.013 13.7266 190.518 13.9043L192.495 16.7929H190.416zM190.457 11.467C190.469 11.3027 190.443 11.1377 190.379 10.9857 190.315 10.8338 190.216 10.6993 190.09 10.5935 189.789 10.3844 189.427 10.2818 189.062 10.3023H187.294V12.6318H189.094C189.458 12.6556 189.819 12.5447 190.107 12.3202 190.223 12.2155 190.314 12.0866 190.374 11.9427 190.435 11.7988 190.463 11.6434 190.457 11.4874V11.467zM193.855 16.7929V8.70947H199.945V10.2906H195.612V11.9388H199.424V13.5112H195.612V15.2088H200V16.7929H193.855zM68.1743 41.2384V42.2983H60.1309V41.2384H63.2993V34.5759H64.4322V37.1064H67.5627V38.1779H64.4322V41.2384H68.1743zM72.4611 38.804C72.0243 38.4234 71.5432 38.0969 71.0283 37.8314L71.5933 37.1151C72.1137 37.3517 72.6028 37.652 73.0494 38.009L72.4611 38.804zM71.2584 42.0071C71.7249 41.0863 72.1353 40.1382 72.4873 39.168L73.294 39.7503C72.9649 40.688 72.5689 41.7159 72.1786 42.5836L71.2584 42.0071zM73.0465 36.3114C72.5761 35.924 72.0655 35.5882 71.5234 35.3097L72.1058 34.6021C72.6592 34.8571 73.186 35.1663 73.6784 35.5252L73.0465 36.3114zM78.5796 39.5669C78.5534 39.9192 78.5243 40.2308 78.4981 40.5045H79.0397V41.3985H78.3845C78.3538 41.6876 78.2636 41.9671 78.1195 42.2196 78.0363 42.3349 77.9287 42.4304 77.8044 42.4994 77.68 42.5684 77.542 42.609 77.4002 42.6186 77.0338 42.6609 76.664 42.6667 76.2965 42.636 76.2671 42.3335 76.1738 42.0408 76.0227 41.777 76.41 41.812 76.7566 41.812 76.9313 41.812 76.9936 41.8189 77.0566 41.8097 77.1142 41.7853 77.1718 41.7608 77.2222 41.7218 77.2604 41.6722 77.3136 41.5881 77.352 41.4955 77.374 41.3985H73.7337C73.8328 40.8918 73.9376 40.2483 74.025 39.5669H73.2358V38.6118H74.1473C74.2113 38.1313 74.2638 37.6538 74.3074 37.2024 74.2026 37.3626 74.0861 37.514 73.9813 37.6538 73.6931 37.4405 73.3916 37.246 73.0785 37.0714 73.7302 36.3077 74.2126 35.4145 74.4938 34.4507L75.5102 34.7069C75.4403 34.9108 75.3616 35.1292 75.2714 35.3417H79.0339V36.2794H74.8433C74.7384 36.4832 74.6423 36.6783 74.5259 36.8617H78.7165C78.7165 36.8617 78.7165 37.1704 78.7165 37.3043 78.699 37.7732 78.6728 38.1983 78.6553 38.5972H79.2844V39.5523L78.5796 39.5669zM74.9947 39.5669C74.951 39.893 74.9073 40.2017 74.8637 40.5045H76.1974C75.9583 40.2453 75.7014 40.003 75.4286 39.7795L75.7635 39.5669H74.9947zM75.2248 37.7703C75.1898 38.0614 75.1549 38.3264 75.1199 38.6118H76.3139C76.114 38.3813 75.8979 38.1653 75.6674 37.9653L75.9586 37.7703H75.2248zM77.5254 40.5045C77.5603 40.2366 77.5866 39.9367 77.6128 39.5669H76.1887C76.4736 39.7901 76.7378 40.0386 76.9779 40.3094L76.6867 40.5045H77.5254zM76.3926 37.7703C76.634 37.9766 76.8589 38.2015 77.0653 38.4429L76.8177 38.6118H77.6681C77.6681 38.3439 77.6943 38.0702 77.703 37.7703H76.3926zM83.4896 40.1842C83.2866 40.7658 82.9841 41.3077 82.5955 41.7857 82.3786 41.6071 82.151 41.4418 81.9141 41.2907 82.2609 40.9148 82.5213 40.4675 82.6771 39.9804L83.4896 40.1842zM84.6544 39.7416V41.6401C84.6544 42.0653 84.5845 42.2866 84.3195 42.438 83.9733 42.5729 83.6003 42.6248 83.2304 42.5894 83.1746 42.286 83.0766 41.992 82.9391 41.7158 83.2042 41.7158 83.4779 41.7158 83.5769 41.7158 83.6759 41.7158 83.6992 41.6896 83.6992 41.5906V39.7241H82.0713V38.8505H83.6992V38.1721H82.0189V37.2985H82.8926C82.8395 36.9827 82.7506 36.674 82.6275 36.3783L83.3527 36.2007H82.1529V35.3271H83.6672C83.5886 35.0884 83.4896 34.8409 83.4022 34.6283L84.3399 34.407C84.482 34.7069 84.6084 35.0141 84.7185 35.3271H86.1192V36.2007H85.0039L85.729 36.3434C85.5863 36.6783 85.464 37.0248 85.33 37.2985H86.2503V38.1721H84.6486V38.8505H86.1047V39.7241L84.6544 39.7416zM83.4896 36.2124C83.6343 36.5234 83.7324 36.854 83.7808 37.1937L83.3585 37.3101H84.4011C84.5485 36.9516 84.6759 36.5851 84.7826 36.2124H83.4896zM90.2138 38.3613H89.3751V42.7059H88.3471V38.3526H87.4734V38.4167C87.4734 39.7154 87.3598 41.5208 86.5998 42.6273 86.3588 42.384 86.0877 42.1727 85.7931 41.9983 85.967 41.7371 86.0987 41.4502 86.1833 41.148L85.4844 41.5906C85.287 41.1327 85.0563 40.6899 84.7942 40.2657L85.4844 39.8843C85.7474 40.2837 85.9838 40.7 86.1921 41.1306 86.4228 40.2453 86.521 39.3307 86.4833 38.4167V35.3097C87.4027 35.1608 88.3024 34.9088 89.1654 34.5584L89.9779 35.3271C89.1613 35.6218 88.3203 35.8439 87.4647 35.9911V37.38H90.1817L90.2138 38.3613zM97.113 36.026C97.113 36.026 97.113 36.3813 97.0926 36.5123 96.9615 40.257 96.8276 41.6373 96.5101 42.0449 96.4405 42.1704 96.3427 42.278 96.2245 42.3594 96.1062 42.4407 95.9708 42.4935 95.8287 42.5137 95.4954 42.5648 95.1576 42.5804 94.8211 42.5603 94.7977 42.1815 94.6987 41.8112 94.5299 41.4713 94.8415 41.4975 95.1123 41.5062 95.2841 41.5062 95.3462 41.5098 95.4081 41.4959 95.4627 41.466 95.5173 41.4362 95.5623 41.3916 95.5928 41.3373 95.7879 41.0811 95.919 39.9833 96.0267 37.0568H95.1531C95.0482 39.2844 94.7191 41.3199 93.6679 42.7263 93.4425 42.4234 93.1595 42.168 92.835 41.975 93.7727 40.7724 94.0377 39.002 94.1105 37.0568H93.0738V36.0289H94.1367C94.1367 35.5252 94.1367 35.0039 94.1367 34.4915H95.1967C95.1967 35.0039 95.1967 35.5252 95.1793 36.0289L97.113 36.026zM100.846 35.4786V42.4846H99.7485V41.9314H98.5632V42.5429H97.509V35.4786H100.846zM99.7485 40.918V36.4861H98.5632V40.918H99.7485zM111.848 38.0702C111.64 39.138 111.172 40.138 110.485 40.9821 111.011 41.3674 111.603 41.6517 112.233 41.8207 111.968 42.0875 111.745 42.3916 111.569 42.7234 110.907 42.5032 110.291 42.1616 109.754 41.7159 109.243 42.1272 108.674 42.4608 108.065 42.706 107.911 42.398 107.715 42.1128 107.483 41.8586 108.061 41.6682 108.598 41.372 109.067 40.985 108.611 40.4201 108.252 39.7835 108.004 39.101 107.899 40.3298 107.562 41.7217 106.653 42.6827 106.425 42.4186 106.162 42.1865 105.873 41.9925 106.375 41.4506 106.717 40.7805 106.863 40.0561 105.972 40.4987 105.005 40.9501 104.242 41.2937L103.834 40.2687C104.146 40.161 104.507 40.0212 104.923 39.8523V37.5053H103.965V36.5036H104.92V34.5847H105.902V36.5036H106.813V37.5053H105.902V39.4592L106.644 39.1505 106.877 40.0241C107.005 39.3652 107.063 38.6947 107.052 38.0236V35.6621H108.974V34.4769H109.999V35.6621H111.237L111.388 35.6359 112.166 35.7844C112.022 36.4382 111.827 37.0798 111.583 37.7033L110.663 37.5024C110.742 37.2724 110.823 36.9608 110.902 36.6288H109.999V37.8547H111.015L111.193 37.8198 111.848 38.0702zM108.042 36.6143V37.8547H108.965V36.6172L108.042 36.6143zM108.831 38.772C109.053 39.3265 109.364 39.8409 109.752 40.2949 110.127 39.8429 110.418 39.327 110.611 38.772H108.831zM118.657 35.7174L119.409 35.9387C118.992 39.4941 117.661 41.6256 115.684 42.636 115.43 42.3095 115.137 42.016 114.81 41.7625 115.78 41.3264 116.593 40.6039 117.14 39.6921 116.796 39.3747 116.345 39.0107 115.999 38.737L116.636 38.0207C116.91 38.2245 117.283 38.4982 117.6 38.7545 117.854 38.1125 118.035 37.4446 118.142 36.7627H116.805C116.537 37.5657 116.149 38.3235 115.655 39.0107 115.378 38.7689 115.086 38.5443 114.781 38.3381 115.553 37.4645 116.074 35.994 116.348 34.4711L117.411 34.6574C117.329 35.0389 117.242 35.4029 117.143 35.764H118.454L118.657 35.7174zM122.312 39.8493C121.874 39.2676 121.398 38.7151 120.888 38.1954V42.7321H119.773V34.4711H120.888V37.4063L121.275 37.1151C121.887 37.7178 122.781 38.571 123.206 39.1243L122.312 39.8493zM133.914 36.0348H132.65C132.694 36.1513 132.737 36.2561 132.766 36.3464L132.33 36.5124H133.087V37.1414H133.803V37.8752H133.087V38.5303H133.899V39.3107H129.455V40.0533H128.427C128.823 40.3881 129.47 40.9821 129.647 41.1569L129.08 41.8761C128.887 41.6373 128.567 41.2937 128.258 40.9472V42.7497H127.262V41.2384C126.967 41.6609 126.628 42.0513 126.252 42.4032 126.121 42.1234 125.952 41.8635 125.748 41.6315 126.293 41.1986 126.75 40.6647 127.093 40.0591H125.952V39.3107H127.262V38.9467H126.226V38.2217H127.262V37.8548H126.098V37.1122H127.262V36.5299H128.11C128.04 36.3633 127.96 36.2009 127.871 36.0436H127.475C127.234 36.4017 126.964 36.7396 126.668 37.054 126.393 36.8374 126.101 36.6426 125.795 36.4716 126.412 35.9264 126.883 35.2358 127.166 34.4624L128.186 34.7536C128.121 34.9021 128.043 35.0623 127.973 35.2224H129.927V36.0698H128.937C129.025 36.2249 129.099 36.3876 129.158 36.5561L128.255 36.92V37.1414H129.327V37.8548H128.255V38.2275H129.184V38.9526H128.255V39.3107H129.441V38.5303H130.396V37.8752H129.618V37.1414H130.396V36.8065C130.161 36.6331 129.916 36.4736 129.662 36.3289 130.186 35.8213 130.565 35.183 130.76 34.4799L131.785 34.7274C131.741 34.8759 131.689 35.0186 131.625 35.1875H133.917L133.914 36.0348zM130.02 39.6368H133.462V42.706H132.455V42.4934H130.978V42.7322H130.02V39.6368zM131.864 36.69C131.809 36.4674 131.732 36.2508 131.634 36.0436H131.2C131.101 36.2125 130.996 36.3639 130.888 36.5124H131.357V37.1501H132.12V36.5939L131.864 36.69zM130.99 40.3357V40.7667H132.466V40.3415L130.99 40.3357zM132.466 41.8208V41.3782H130.99V41.812L132.466 41.8208zM132.132 37.8839H131.369V38.5391H132.132V37.8839zM141.439 34.4799C141.439 34.8497 141.413 35.3272 141.378 35.8601 141.503 37.054 142.042 40.3881 145.128 41.7509 144.811 41.9968 144.549 42.3075 144.36 42.6623 142.397 41.7247 141.413 40.0008 140.9 38.4779 140.399 40.2557 139.233 41.7726 137.644 42.7147 137.408 42.3784 137.112 42.0883 136.771 41.8586 140.364 39.9368 140.195 35.9737 140.23 34.4799H141.439zM152.406 39.2378V40.0269C152.406 40.9646 151.876 42.0886 148.681 42.8136 148.482 42.4939 148.238 42.2045 147.956 41.9546 150.991 41.4072 151.256 40.5918 151.256 40.0007V39.2378H152.406zM155.202 37.8576V40.982H154.037V38.8214H149.779V41.0956H148.681V37.8547L155.202 37.8576zM154.806 34.8234V37.2927H149.054V34.8234H154.806zM150.146 36.3987H153.614V35.7173H150.161L150.146 36.3987zM152.703 40.7869C153.77 41.0977 154.818 41.4701 155.842 41.9022L155.318 42.8049C154.305 42.3321 153.265 41.9208 152.202 41.5732L152.703 40.7869zM166.868 39.3456H163.443V41.4772C163.443 42.0595 163.312 42.3507 162.896 42.5284 162.479 42.706 161.862 42.7235 161.046 42.7147 160.947 42.3324 160.795 41.9659 160.595 41.6257 161.215 41.6635 161.905 41.6635 162.092 41.6548 162.278 41.6461 162.348 41.5995 162.348 41.451V39.3456H158.854V38.2915H162.348V37.0627C162.948 36.7671 163.519 36.4171 164.055 36.0173H159.718V34.9749H165.231L165.479 34.9196 166.285 35.5252C165.438 36.3446 164.485 37.0468 163.452 37.6131V38.2857H166.868V39.3456zM176.28 37.5635C176.097 38.5736 175.7 39.5328 175.115 40.3764 176.14 40.8627 177.061 41.349 177.736 41.7392L176.915 42.7467C176.242 42.3128 175.319 41.7741 174.277 41.2441 173.339 41.9954 172.055 42.4089 170.331 42.7001 170.199 42.316 170.008 41.9545 169.766 41.6285 171.222 41.4713 172.296 41.1801 173.118 40.6647 172.357 40.3036 171.56 39.9484 170.773 39.6397 171.099 39.0573 171.446 38.3381 171.781 37.5606H169.914V36.4279H172.224C172.473 35.7667 172.689 35.0932 172.87 34.4099L173.994 34.5701C173.843 35.1982 173.66 35.8182 173.447 36.4279H177.789V37.5635H176.28zM173.024 37.5635C172.812 38.1284 172.582 38.67 172.369 39.1388 172.925 39.3776 173.493 39.6251 174.032 39.8639 174.557 39.1892 174.918 38.4016 175.086 37.5635H173.024zM188.742 40.423H185.308V41.5557C185.308 42.1061 185.177 42.371 184.761 42.5196 184.344 42.6681 183.788 42.6884 183.034 42.6884 182.932 42.3333 182.788 41.992 182.603 41.6722 183.168 41.6984 183.823 41.6984 184.001 41.6897 184.178 41.6809 184.231 41.646 184.231 41.5295V40.423H180.847V39.4504H184.219V38.903C184.566 38.7592 184.9 38.5868 185.218 38.3876H182.431V37.4791H186.421L186.633 37.4237 187.306 37.9479C186.703 38.4863 186.027 38.9354 185.297 39.2815V39.4504H188.73L188.742 40.423zM181.965 37.8023H180.975V35.8659H182.326C182.15 35.5418 181.948 35.233 181.72 34.9428L182.614 34.5439C182.936 34.8942 183.209 35.2859 183.427 35.7086L183.092 35.8688H184.577C184.424 35.4714 184.229 35.0916 183.995 34.736L184.924 34.3895C185.217 34.7785 185.453 35.2082 185.623 35.6649L185.098 35.8688H186.249C186.539 35.4444 186.794 34.9975 187.012 34.5322L188.107 34.8583C187.868 35.2049 187.603 35.5485 187.355 35.8688H188.648V37.8052H187.612V36.7977H181.965V37.8023zM194.304 40.0008C194.196 39.7096 194.012 39.2553 193.806 38.836V42.738H192.842V39.1592C192.651 39.8904 192.369 40.5948 192.003 41.2558 191.869 40.8947 191.707 40.5451 191.517 40.2104 192.012 39.5116 192.437 38.2565 192.681 37.185H191.808V36.2124H192.859V34.4653H193.823V36.2124H194.697V37.1937H193.823V37.4849C194.056 37.7761 194.764 38.9612 194.921 39.2175L194.304 40.0008zM199.08 38.9903C199.014 38.8677 198.94 38.75 198.858 38.638 198.648 39.3383 198.322 39.9986 197.894 40.5919 198.504 41.1206 199.223 41.5075 200 41.7246 199.723 42.0053 199.488 42.3239 199.301 42.671 198.514 42.4058 197.796 41.9715 197.195 41.3985 196.579 41.9765 195.859 42.432 195.072 42.7409 194.891 42.4372 194.667 42.1608 194.408 41.9197 195.195 41.6316 195.915 41.1857 196.523 40.6094 196.121 40.0309 195.794 39.4037 195.55 38.7428 195.433 38.8593 195.311 38.9554 195.198 39.0515 194.978 38.81 194.734 38.5914 194.47 38.3992 195.06 37.9145 195.56 37.33 195.949 36.6725L196.878 37.0976C196.577 37.5636 196.239 38.0048 195.867 38.4167L196.383 38.2828C196.573 38.8259 196.841 39.3388 197.178 39.8057 197.496 39.3383 197.732 38.8204 197.877 38.274L198.771 38.5128C198.424 38.0302 198.034 37.5799 197.606 37.1675L198.206 36.6637H194.915V35.6999H196.907C196.758 35.3529 196.57 35.0237 196.348 34.7186L197.277 34.3721C197.552 34.701 197.779 35.0678 197.95 35.4611L197.393 35.6999H199.776V36.6637H198.386C198.939 37.1557 199.428 37.7142 199.843 38.3264L199.08 38.9903z" fill="#2C3D6B"></path>
  </g>
  <defs>
    <clipPath id="clip0">
      <path fill="#fff" d="M0 0H200V51.383H0z"></path>
    </clipPath>
  </defs>
</svg>
